<?xml version="1.0" standalone="no"?>
<!DOCTYPE svg PUBLIC "-//W3C//DTD SVG 20010904//EN"
 "http://www.w3.org/TR/2001/REC-SVG-20010904/DTD/svg10.dtd">
<svg version="1.0" xmlns="http://www.w3.org/2000/svg"
 width="256.000000pt" height="256.000000pt" viewBox="0 0 256.000000 256.000000"
 preserveAspectRatio="xMidYMid meet">
<metadata>
Created by potrace 1.11, written by Peter Selinger 2001-2013
</metadata>
<g transform="translate(0.000000,256.000000) scale(0.100000,-0.100000)"
fill="#000000" stroke="none">
<path d="M1855 2469 c-82 -13 -152 -56 -252 -156 -51 -51 -93 -97 -93 -102 0
-5 -6 -16 -13 -23 -23 -23 -84 -140 -120 -228 -36 -91 -65 -193 -74 -265 l-5
-44 35 10 c19 5 59 10 88 11 176 4 331 -80 423 -229 14 -24 28 -43 31 -43 2 0
26 33 52 73 125 191 193 395 199 597 5 187 -35 306 -124 365 -52 34 -88 43
-147 34z"/>
<path d="M707 1454 c-359 -53 -632 -248 -614 -440 16 -164 215 -272 517 -279
152 -4 209 3 360 43 41 12 92 28 113 37 l38 16 -42 47 c-42 48 -85 123 -101
177 -31 106 -17 249 37 355 l25 50 -27 1 c-130 6 -232 3 -306 -7z"/>
<path d="M1390 1431 c-112 -23 -192 -120 -191 -234 0 -218 268 -319 415 -157
41 45 66 120 60 179 -4 46 -42 127 -70 153 -54 48 -145 73 -214 59z"/>
<path d="M1905 1088 c-14 -66 -75 -177 -128 -230 -62 -63 -172 -124 -242 -133
-27 -3 -62 -9 -77 -11 l-27 -5 43 -87 c140 -278 432 -522 645 -539 114 -9 179
23 227 111 26 46 28 60 29 151 0 108 -20 189 -74 309 -65 141 -221 335 -348
434 l-41 32 -7 -32z"/>
</g>
</svg>
