<?xml version="1.0" standalone="no"?>
<!DOCTYPE svg PUBLIC "-//W3C//DTD SVG 20010904//EN"
 "http://www.w3.org/TR/2001/REC-SVG-20010904/DTD/svg10.dtd">
<svg version="1.0" xmlns="http://www.w3.org/2000/svg"
 width="160.000000pt" height="160.000000pt" viewBox="0 0 160.000000 160.000000"
 preserveAspectRatio="xMidYMid meet">
<metadata>
Created by potrace 1.14, written by Peter Selinger 2001-2017
</metadata>
<g transform="translate(0.000000,160.000000) scale(0.100000,-0.100000)"
fill="#000000" stroke="none">
<path d="M855 1540 c3 -5 8 -10 11 -10 2 0 4 5 4 10 0 6 -5 10 -11 10 -5 0 -7
-4 -4 -10z"/>
<path d="M910 1521 c0 -8 -8 -10 -20 -6 -11 3 -20 2 -20 -3 0 -5 -13 -12 -30
-14 -17 -3 -30 0 -30 6 0 7 -3 7 -8 -1 -12 -19 -62 -35 -62 -20 0 8 -4 7 -10
-3 -8 -12 -13 -13 -30 -2 -11 7 -20 8 -20 3 0 -5 6 -11 13 -14 6 -3 -1 -10
-16 -16 -16 -6 -33 -9 -38 -5 -5 3 -9 0 -9 -6 0 -7 -7 -9 -17 -6 -10 4 -14 4
-10 0 10 -10 -72 -104 -91 -104 -8 0 -12 -3 -9 -6 4 -4 -13 -19 -37 -34 -24
-16 -50 -37 -58 -49 -8 -11 -17 -18 -20 -15 -4 3 -9 -4 -13 -15 -10 -32 -79
-81 -114 -81 -20 0 -34 -7 -41 -20 -12 -22 -40 -27 -40 -8 0 6 -3 8 -6 5 -4
-4 -1 -13 6 -21 10 -12 8 -21 -9 -45 -12 -16 -21 -32 -21 -36 0 -4 -9 -18 -20
-32 -11 -14 -22 -40 -26 -59 -3 -19 -10 -34 -15 -34 -5 0 -8 -3 -7 -7 1 -5 -2
-28 -6 -53 -12 -64 -13 -69 -21 -125 -4 -27 -14 -58 -23 -68 -15 -16 -15 -17
0 -12 17 7 19 -9 5 -32 -5 -7 -4 -13 1 -13 6 0 13 -17 17 -37 10 -57 91 -195
129 -221 18 -12 41 -30 52 -41 11 -10 30 -24 43 -30 19 -11 20 -15 9 -29 -11
-15 -11 -15 3 -4 19 15 49 6 49 -15 0 -8 4 -12 9 -8 5 3 34 -9 63 -26 29 -18
78 -40 108 -49 31 -10 54 -22 52 -29 -2 -9 3 -9 14 -3 11 6 36 3 76 -9 33 -10
68 -16 79 -14 10 2 19 1 19 -3 0 -6 73 -6 227 1 24 1 43 5 43 8 0 7 40 22 52
20 13 -2 92 32 109 46 9 8 26 15 38 16 11 1 21 7 21 14 0 7 10 13 22 13 12 0
19 2 16 5 -9 9 104 120 119 117 8 -2 13 3 12 10 -3 19 19 68 30 68 6 0 7 8 4
17 -6 16 -5 16 10 4 15 -12 17 -12 11 3 -9 24 16 78 33 72 10 -4 11 -1 4 13
-13 24 -3 34 18 19 13 -10 14 -10 4 2 -17 19 -16 33 1 27 10 -4 13 -1 10 7 -3
8 -1 17 5 21 6 3 11 12 11 18 0 7 -10 1 -21 -13 -15 -18 -18 -19 -11 -5 5 11
8 30 7 43 -2 21 -1 21 18 5 20 -18 20 -18 1 11 -13 20 -15 31 -7 33 7 3 9 11
6 20 -4 9 2 22 13 31 16 12 16 14 2 9 -21 -7 -24 12 -5 32 10 11 9 13 -1 7 -9
-5 -12 1 -12 21 -1 116 -6 220 -12 217 -4 -3 -12 5 -18 16 -9 16 -8 25 2 38
11 13 11 14 -1 7 -11 -6 -13 -4 -8 8 3 10 2 17 -2 17 -5 0 -7 18 -4 40 3 23 2
40 -4 40 -6 0 -9 -12 -6 -27 l3 -28 -11 25 c-6 14 -12 30 -13 35 -1 6 -10 25
-19 42 -10 18 -17 34 -16 35 2 2 -2 12 -8 23 -9 17 -1 33 53 105 35 47 64 89
64 94 0 15 -77 -77 -107 -128 -17 -30 -16 -3 3 55 9 27 14 52 12 55 -3 2 -15
-29 -27 -70 l-22 -74 -59 59 c-58 57 -59 59 -59 115 0 31 -3 59 -6 62 -4 4 -5
-10 -3 -32 3 -31 2 -35 -7 -22 -18 24 -27 7 -10 -18 25 -34 17 -42 -13 -13
-16 15 -31 24 -35 20 -4 -3 -7 -1 -7 5 0 7 -3 12 -7 11 -22 -3 -54 15 -49 28
4 9 2 11 -6 7 -7 -4 -32 -7 -56 -5 -40 2 -54 4 -87 11 -5 1 -12 1 -15 0 -18
-7 -57 -6 -67 2 -9 7 -13 7 -13 -1z"/>
<path d="M496 1482 c-2 -4 2 -18 11 -32 9 -16 12 -18 7 -5 -3 11 -7 26 -7 33
0 14 -4 15 -11 4z"/>
<path d="M510 1409 c0 -5 5 -7 10 -4 6 3 10 8 10 11 0 2 -4 4 -10 4 -5 0 -10
-5 -10 -11z"/>
<path d="M510 1363 c0 -30 9 -27 15 6 2 11 0 21 -6 21 -5 0 -9 -12 -9 -27z"/>
<path d="M1486 1300 c-8 -16 -11 -30 -6 -30 4 0 13 14 19 30 5 17 8 30 6 30
-2 0 -10 -13 -19 -30z"/>
<path d="M410 1280 c-9 -6 -10 -10 -3 -10 6 0 15 5 18 10 8 12 4 12 -15 0z"/>
<path d="M1483 1245 c0 -8 4 -15 9 -15 4 0 8 4 8 9 0 6 -4 12 -8 15 -5 3 -9
-1 -9 -9z"/>
<path d="M1495 1191 c0 -34 11 -32 17 4 3 15 1 25 -6 25 -6 0 -11 -13 -11 -29z"/>
<path d="M285 1160 c3 -5 8 -10 11 -10 2 0 4 5 4 10 0 6 -5 10 -11 10 -5 0 -7
-4 -4 -10z"/>
<path d="M20 761 c0 -6 4 -13 10 -16 6 -3 7 1 4 9 -7 18 -14 21 -14 7z"/>
<path d="M20 711 c0 -10 19 -25 25 -20 1 2 -3 10 -11 17 -8 7 -14 8 -14 3z"/>
<path d="M1501 434 c0 -11 3 -14 6 -6 3 7 2 16 -1 19 -3 4 -6 -2 -5 -13z"/>
<path d="M1493 375 c0 -8 4 -15 9 -15 4 0 8 4 8 9 0 6 -4 12 -8 15 -5 3 -9 -1
-9 -9z"/>
<path d="M1379 201 c14 -16 28 -27 30 -25 5 5 -40 54 -50 54 -3 0 5 -13 20
-29z"/>
<path d="M395 139 c-11 -16 -1 -19 13 -3 7 8 8 14 3 14 -5 0 -13 -5 -16 -11z"/>
<path d="M595 60 c3 -5 8 -10 11 -10 2 0 4 5 4 10 0 6 -5 10 -11 10 -5 0 -7
-4 -4 -10z"/>
</g>
</svg>
